<svg id="Layer_1" data-name="Layer 1" xmlns="http://www.w3.org/2000/svg" viewBox="0 0 385 333"><defs><style>.cls-1{fill:#fff;stroke:#fff;stroke-miterlimit:10;}</style></defs><title>Share</title><path class="cls-1" d="M467.8,47.8V288.5c-2.3,4.7-6.2,6.6-11.2,6.6H333.6c-4.1.1-4.7.7-3.9,4.7s1.9,9.8,3.1,14.6a258.4,258.4,0,0,0,14.5,43.3c3.4,7.8-1,14.4-9.5,14.9h-1.9c-40.1,0-80.2-.2-120.3.1-9.1.1-15.4-6.9-10.9-16.4,8.2-17.5,13.4-36,16.9-55,1.1-6,.9-6.2-5.1-6.2H95.7c-5.3,0-9.6-1.6-12-6.7V47.8c2.6-5.9,7.5-7,13.3-7H456C461.3,40.8,465.5,42.6,467.8,47.8ZM276,60.8H109.5c-6.1,0-6.1,0-6.1,6.3q0,100.7,0,201.3c0,1,.1,2,0,3-.1,2.5,1.2,3.7,3.7,3.6H366.9c6,0,28.5.3,31.8,0a17.2,17.2,0,0,1,3.4,0c3.8.4,27.2.2,30.7,0s6.2,0,9.4,0c5.9,0,6-.1,6-5.8q0-101.4,0-202.8c0-5.6,0-5.6-5.7-5.6Z" transform="translate(-83.3 -40.3)"/><path class="cls-1" d="M326.4,125.1a26.9,26.9,0,0,1-16.7,25.4c-10.9,4.4-20.9,2.6-29.5-5.4-2.4-2.2-4.1-2.3-6.8-.9-5.8,3.2-11.7,6.2-17.7,9.1-2.4,1.2-2.9,2.5-1.8,5a25.7,25.7,0,0,1,0,22.1c-1.2,2.6-.5,3.8,1.9,4.9,6.1,2.9,12.1,6,18,9.2,2.5,1.4,4.1,1,6.2-1a27.5,27.5,0,1,1-8.3,23.8c-.2-1.4-.7-2.8-.4-4.1,1.4-4.8-1.3-6.7-5.1-8.4-6.5-3.1-13-6.4-19.4-9.9a8.1,8.1,0,0,0-7.7-.3A27.5,27.5,0,0,1,217.9,144a26.6,26.6,0,0,1,21.8.1,6.5,6.5,0,0,0,6.3-.1c7.5-4,15.1-7.8,22.7-11.6,2.2-1.1,3-2.4,2.8-5-1.5-14.9,10.4-29,24.9-29.6C313.5,97,326.4,108.8,326.4,125.1Z" transform="translate(-83.3 -40.3)"/></svg>