<svg id="Layer_1" data-name="Layer 1" xmlns="http://www.w3.org/2000/svg" viewBox="0 0 483.9 417.2"><defs><style>.cls-1{stroke:#000;stroke-width:45px;}.cls-1,.cls-2{stroke-linecap:round;stroke-linejoin:bevel;}.cls-2{stroke:#fff;stroke-width:36px;}</style></defs><title>stop-sharing</title><path d="M42.3,48.6C45,42.3,49.9,40,56.4,40H489.8c10.4,0,14.7,4.5,14.7,15.3q0,141.4.1,282.8c0,13.2-6.4,16.4-16.1,16.4H346.9c-11.6,0-10-.1-8.1,10,4.2,22.7,10.4,44.8,19.9,65.8,5.3,11.6-2.1,20.2-12.8,20.2-48.5-.3-97.1-.2-145.6-.1-4.9,0-9.2-1.2-12.3-5.5s-2.6-8.9-.6-13.6a314.4,314.4,0,0,0,20.9-70.8c1-5.6.7-6-5.1-6H58.5c-6.8,0-12.9-1.2-16.2-8.3Zm231,30H93.6c-6,0-6,0-6,6.1q0,112.5,0,224.9c0,1,0,1.9,0,2.9s1,3.3,3.2,3.2H409.5c3.9.5,28.8.3,32.2,0s7.3,0,10.9-.1c6.1,0,6.1,0,6.1-6.1q0-112.5,0-224.9c0-6.1,0-6.1-6-6.1Z" transform="translate(-29.3 -33.3)"/><path d="M331.1,149.1c-.3,11.5-6.8,21.6-19.2,27.5s-25,2.9-34.3-6.6c-2.4-2.4-4.2-2.7-7.1-1.1-6.9,3.9-14.1,7.5-21.1,11.2-2.5,1.3-3.4,2.5-2,5.5,4.2,9,4,18.1,0,27.1-1.2,2.7-.7,3.9,1.8,5.1,7.3,3.6,14.5,7.4,21.6,11.3,2.7,1.5,4.4,1.3,6.7-1,17.7-17.4,46.3-9.3,52.7,14.9,4.7,17.8-6.4,36.5-24,40.4s-35-8.2-38-26.2c-.4-2.3-1-4.8-.5-7,.9-4.1-.5-6.2-4.1-7.9-8.6-4.2-17-8.8-25.4-13.3-2.4-1.3-4.5-1.1-6.9,0-21.5,9.5-44.7-6.3-44.5-30.2s23.2-38.7,44.1-29.6a8.5,8.5,0,0,0,8.4-.5c8.5-4.7,17.2-9.1,25.8-13.5,2.2-1.1,3.1-2.5,2.9-5.2-1.9-18,11.7-34.9,28.6-35.7C316.1,113.1,331,127.1,331.1,149.1Z" transform="translate(-29.3 -33.3)"/><line class="cls-1" x1="22.5" y1="22.5" x2="461.4" y2="310.7"/><line class="cls-2" x1="22.5" y1="22.5" x2="461.4" y2="310.7"/></svg>