<svg id="Layer_1_Image" data-name="Layer 1 Image" xmlns="http://www.w3.org/2000/svg" viewBox="0 0 441.3 441.3"><defs><style>.cls-1{fill:#fff;}.cls-2{fill:none;stroke:red;stroke-miterlimit:10;stroke-width:23px;}</style></defs><title>StopRecording</title><path class="cls-1" d="M12.8,335.6V74.2c1.3-7.5,7.9-13.6,17.6-13.6q101.6.3,203.3.1H413a16,16,0,0,1,16,15.8q0,128.4,0,256.8a12.3,12.3,0,0,1-.1,2.1,16.2,16.2,0,0,1-16.4,13.7H28.9a16,16,0,0,1-9.1-2.6A16.4,16.4,0,0,1,12.8,335.6Zm208.1-34.9H378.1c2.6,0,2.5.3,2.5-2.5q0-93.2,0-186.5c0-.4,0-.9,0-1.3s-.4-1.4-1.4-1.3H63.4c-2.3,0-2.3,0-2.3,2.4q0,93.5,0,187c0,2.3,0,2.3,2.4,2.3Z"/><path class="cls-1" d="M244.4,12.8,250,28.3l5.4,15c.6,1.6.5,1.7-1.1,1.7H187.4c-1.5,0-1.6-.1-1.2-1.3l10.9-30.4.3-.5Z"/><path class="cls-1" d="M368.3,429H341.8c-2.2,0-1.9.3-2.7-2l-17.9-50.9-3.5-10c-.5-1.3-.4-1.4,1-1.4h54.1c1.1,0,1.5.6,1.8,1.5L393,417.4l3.6,10c.5,1.5.5,1.6-1.1,1.6Z"/><path class="cls-1" d="M73.4,429h-27c-1.8,0-1.8,0-1.2-1.7L67,366.8c.8-2.3.5-2,2.9-2h53.3c1.1-.1,1.3.3,1,1.3l-3.1,8.8-18.4,52.3c-.7,1.9-.7,1.9-2.6,1.9Z"/><path class="cls-1" d="M220.7,397.1H198.3c-1.6,0-1.7-.1-1.7-1.7q0-14.5,0-28.9c0-1.7,0-1.7,1.8-1.7h45c1.7,0,1.8,0,1.8,1.7q0,14.5,0,28.9c0,1.6-.1,1.7-1.7,1.7Z"/><path class="cls-1" d="M220.8,140.6H346.6c2.5,0,2.5,0,2.5,2.5q0,61.8,0,123.6c0,2.4,0,2.4-2.3,2.4H94.2c-1.5,0-1.6-.1-1.6-1.7q0-18.8,0-37.6,0-43.3,0-86.6,0-.2,0-.4c0-2.3,0-2.3,2.2-2.3Z"/><line class="cls-2" x1="430.3" y1="426.6" x2="18.4" y2="14.7"/></svg>