<svg id="Layer_1" data-name="Layer 1" xmlns="http://www.w3.org/2000/svg" viewBox="0 0 788.3 653.8"><defs><style>.cls-1{fill:#fff;}.cls-2,.cls-3{fill:none;stroke-linecap:round;stroke-linejoin:bevel;}.cls-2{stroke:#434343;stroke-width:38px;}.cls-3{stroke:#fff;stroke-width:22px;}</style></defs><title>Stop-Sharing</title><path class="cls-1" d="M853.4,122.7V588.3c-4.4,9.1-12,12.8-21.7,12.8H593.9c-8,.2-9.1,1.4-7.6,9,1.9,9.5,3.8,18.9,6,28.3a500.1,500.1,0,0,0,28,83.7c6.5,15.1-2,27.9-18.4,28.7h-3.6c-77.6,0-155.1-.3-232.7.2-18.2.1-29.6-13.7-21.2-31.8,15.8-33.8,25.8-69.7,32.7-106.4,2.1-11.6,1.8-11.9-9.9-11.9H133.9c-10.2,0-18.5-3.1-23.2-12.9V122.7c4.9-11.4,14.5-13.5,25.6-13.5H830.7C841,109.3,849.1,112.8,853.4,122.7ZM482.5,147.9h-322c-11.8,0-11.9,0-11.9,12.1q0,194.7,0,389.4c0,1.9.1,3.9,0,5.8-.2,4.9,2.3,7.1,7.1,6.9H658.3c5.8,0,55.1.6,61.6,0a33.2,33.2,0,0,1,6.5,0c7.3.9,50.9-.1,61.6,0h16c11.3,0,11.6-.2,11.6-11.2q0-196.1,0-392.3c0-10.8,0-10.8-11-10.8Z" transform="translate(-90.2 -97.6)"/><path class="cls-1" d="M580,443.1c-.2,31.2-25.2,54.7-56,53.1A52.7,52.7,0,0,1,474,438.6c.5-4.7-1.2-7.2-5.1-9.1-15.1-7.6-30.2-15.3-45.1-23.2-4.6-2.4-8.2-.8-12.3.9a53.3,53.3,0,0,1-41.1-98.3,51.4,51.4,0,0,1,42.2.2c4.4,1.9,7.9,2,12.2-.2,14.5-7.7,29.2-15.1,43.9-22.4,4.3-2.1,5.8-4.7,5.3-9.7-3-28.3,19.8-55.6,47.5-57.3,32-1.9,57.3,19.8,58.4,50,.9,22.9-10.6,42.1-30.8,51.4s-42.6,5.5-59-10.2c-3.7-3.6-6.6-4.5-11.3-1.9-11.9,6.5-24,12.6-36.1,18.6-4.1,2-5,4.3-3.1,8.6,6.8,14.7,6.6,29.5-.1,44.2-2,4.4-.7,6.5,3.3,8.5,11.9,5.9,23.8,11.8,35.5,18.2,4.9,2.7,8,1.8,11.9-1.9a53.1,53.1,0,0,1,88.4,25.9C579.9,435,579.7,439.3,580,443.1Z" transform="translate(-90.2 -97.6)"/><line class="cls-2" x1="19" y1="19" x2="769.3" y2="492.3"/><line class="cls-3" x1="19" y1="19" x2="769.3" y2="492.3"/></svg>