<svg id="Layer_1" data-name="Layer 1" xmlns="http://www.w3.org/2000/svg" viewBox="0 0 100 78.75"><defs><style>.cls-1{fill:#979aa2;}</style></defs><title>Add-Contact</title><path class="cls-1" d="M63.1,42.25a16.36,16.36,0,0,0-6.19-12.81,12,12,0,1,0-20.41,0,16.6,16.6,0,0,0-2.88,3,1.58,1.58,0,0,0,2.53,1.91,13.41,13.41,0,0,1,2.35-2.41,11.92,11.92,0,0,0,16.42,0,13.2,13.2,0,0,1,5,10.36v6.13a3.27,3.27,0,0,1-3.26,3.26H36.75a3.27,3.27,0,0,1-3.26-3.26V44.09a1.58,1.58,0,0,0-3.16,0v4.28a6.44,6.44,0,0,0,6.43,6.43H56.67a6.44,6.44,0,0,0,6.43-6.43ZM54.26,27.71a8.85,8.85,0,0,1-2.19,2.46,8.76,8.76,0,0,1-10.73,0,8.85,8.85,0,0,1-2.18-2.46,8.79,8.79,0,1,1,15.1,0Z"/><path class="cls-1" d="M30.92,39.12a1.57,1.57,0,0,0,.15.27,1.54,1.54,0,0,0,.44.44,1.56,1.56,0,0,0,.27.15,1.49,1.49,0,0,0,.3.09,1.56,1.56,0,0,0,.31,0,1.57,1.57,0,0,0,.31,0A1.52,1.52,0,0,0,33,40a1.61,1.61,0,0,0,.27-.15,1.51,1.51,0,0,0,.24-.2,1.62,1.62,0,0,0,.2-.24,1.56,1.56,0,0,0,.15-.27,1.59,1.59,0,0,0,.09-.3,1.56,1.56,0,0,0,0-.31,1.6,1.6,0,0,0,0-.31,1.67,1.67,0,0,0-.09-.3,1.57,1.57,0,0,0-.34-.51,1.51,1.51,0,0,0-.24-.2,1.62,1.62,0,0,0-.27-.15,1.64,1.64,0,0,0-.3-.09,1.57,1.57,0,0,0-.62,0,1.6,1.6,0,0,0-.3.09,1.57,1.57,0,0,0-.27.15,1.54,1.54,0,0,0-.44.44,1.61,1.61,0,0,0-.15.27,1.68,1.68,0,0,0-.09.3,1.59,1.59,0,0,0,0,.31,1.56,1.56,0,0,0,0,.31A1.59,1.59,0,0,0,30.92,39.12Z"/><path class="cls-1" d="M87.62,54.52H80.69V47.59a4.32,4.32,0,0,0-3.31-4.19V11.06a8.71,8.71,0,0,0-8.7-8.7H24.74a8.71,8.71,0,0,0-8.7,8.7v5a5.16,5.16,0,0,0,0,10.32V39.7A5.16,5.16,0,0,0,16,50v5a8.71,8.71,0,0,0,8.7,8.7H57.56a4.32,4.32,0,0,0,4.08,2.93h6.93v6.93a4.31,4.31,0,0,0,4.31,4.31h3.49a4.31,4.31,0,0,0,4.31-4.31V66.63h6.93a4.31,4.31,0,0,0,4.31-4.31V58.83A4.31,4.31,0,0,0,87.62,54.52ZM14.09,21.2a2,2,0,0,1,1.95-2H21a2,2,0,0,1,0,4H16A2,2,0,0,1,14.09,21.2Zm2,25.66h0a2,2,0,0,1,0-4H21a2,2,0,1,1,0,4H16.08Zm41.25,12v1.71H24.74A5.54,5.54,0,0,1,19.2,55V50H21A5.16,5.16,0,1,0,21,39.7H19.2V26.36H21A5.16,5.16,0,0,0,21,16H19.2v-5a5.54,5.54,0,0,1,5.54-5.54H68.68a5.54,5.54,0,0,1,5.54,5.54V43.28H72.89a4.31,4.31,0,0,0-4.31,4.31v6.93H61.64A4.31,4.31,0,0,0,57.34,58.83Zm31.43,3.49h0a1.15,1.15,0,0,1-1.14,1.14H79.11a1.58,1.58,0,0,0-1.58,1.58v8.52a1.15,1.15,0,0,1-1.14,1.14H72.89a1.15,1.15,0,0,1-1.14-1.14V65.05a1.59,1.59,0,0,0-1.58-1.58H61.64a1.15,1.15,0,0,1-1.14-1.14V58.83a1.15,1.15,0,0,1,1.14-1.14h8.52a1.58,1.58,0,0,0,1.58-1.58V47.59a1.15,1.15,0,0,1,1.14-1.14h3.49a1.15,1.15,0,0,1,1.14,1.14V56.1a1.58,1.58,0,0,0,1.58,1.58h8.52a1.15,1.15,0,0,1,1.14,1.14v3.49Z"/></svg>