<svg id="Layer_1" data-name="Layer 1" xmlns="http://www.w3.org/2000/svg" viewBox="0 0 100 78.75"><defs><style>.cls-1{fill:#979aa2;}</style></defs><title>Chat-Icon</title><path class="cls-1" d="M71.42,1.49H8.17A5.32,5.32,0,0,0,2.86,6.8V44.74a5.32,5.32,0,0,0,5.31,5.31h4.1V64.18a2.22,2.22,0,0,0,3.8,1.57l15.7-15.7h3.15a2.22,2.22,0,0,0,0-4.45H30.69a2.22,2.22,0,0,0-1.42.64L16.72,58.81s0-11.12,0-11.18a2.22,2.22,0,0,0-2.21-2H8.17a.86.86,0,0,1-.86-.86V6.8a.86.86,0,0,1,.86-.86H71.42a.86.86,0,0,1,.86.86V21.36a2.22,2.22,0,0,0,4.45,0V6.8A5.32,5.32,0,0,0,71.42,1.49Z"/><path class="cls-1" d="M91.83,28.7H47.56A5.32,5.32,0,0,0,42.25,34V59.89a5.32,5.32,0,0,0,5.31,5.31H75.28L86.51,76.43a2.22,2.22,0,0,0,3.8-1.57V65.2h1.53a5.32,5.32,0,0,0,5.31-5.31V34A5.31,5.31,0,0,0,91.83,28.7Zm.86,31.2a.86.86,0,0,1-.86.86H88.08a2.22,2.22,0,0,0-2.22,2.05s0,6.68,0,6.68l-8.08-8.08,0,0-.09-.08a2.21,2.21,0,0,0-1.46-.55H47.56a.86.86,0,0,1-.86-.86V34a.86.86,0,0,1,.86-.86H91.83a.86.86,0,0,1,.86.86Z"/><path class="cls-1" d="M69.7,44.72a2.22,2.22,0,1,0,2.22,2.22A2.23,2.23,0,0,0,69.7,44.72Z"/><path class="cls-1" d="M60,16.2H19.55a2.22,2.22,0,0,0,0,4.45H60a2.22,2.22,0,1,0,0-4.45Z"/><path class="cls-1" d="M34.91,30.9H19.55a2.22,2.22,0,1,0,0,4.45H34.91a2.22,2.22,0,1,0,0-4.45Z"/><path class="cls-1" d="M59.36,44.72a2.22,2.22,0,1,0,2.22,2.22A2.23,2.23,0,0,0,59.36,44.72Z"/><path class="cls-1" d="M80,44.72a2.22,2.22,0,1,0,2.22,2.22A2.23,2.23,0,0,0,80,44.72Z"/></svg>