<svg id="Layer_1" data-name="Layer 1" xmlns="http://www.w3.org/2000/svg" viewBox="0 0 100 78.75"><defs><style>.cls-1{fill:#00d0ff;}</style></defs><title>Finder-Blue</title><path class="cls-1" d="M86.49,67.62,72.67,53.8a1.49,1.49,0,0,0-2.06-2.06L66.91,48a30.12,30.12,0,0,0,.38-33.11,1.49,1.49,0,1,0-2.51,1.61,27.13,27.13,0,1,1-8.52-8.4,1.49,1.49,0,0,0,1.58-2.53,30.11,30.11,0,1,0,.91,50.58l3.67,3.67A1.52,1.52,0,1,0,64.53,62h0l13.8,13.8a5.69,5.69,0,0,0,4,1.67,5.77,5.77,0,0,0,4.12-9.82ZM61.84,55.06l3.94-3.94,2.7,2.7-3.94,3.94ZM84.35,73.64a2.77,2.77,0,0,1-3.91,0l-13.8-13.8,3.94-3.94,13.8,13.8a2.77,2.77,0,0,1,0,3.92Z"/><path class="cls-1" d="M63.28,9.95h0A1.49,1.49,0,0,0,61.13,12h0a1.49,1.49,0,1,0,2.11-2.11Z"/><path class="cls-1" d="M42,8.25a23,23,0,1,0,23,23h0A23,23,0,0,0,42,8.25Zm0,42.94a20,20,0,1,1,20-20A20,20,0,0,1,42,51.19Z"/><path class="cls-1" d="M47.62,29.27a7.12,7.12,0,0,0,1.48-4.35V23a7.16,7.16,0,0,0-14.31,0v2a7.12,7.12,0,0,0,1.48,4.35,10.26,10.26,0,0,0-8.34,10.06v.77a1.49,1.49,0,0,0,1.49,1.49h25A1.49,1.49,0,0,0,56,40.11v-.77A10.26,10.26,0,0,0,47.62,29.27ZM37.77,23a4.18,4.18,0,0,1,8.35,0v2a4.17,4.17,0,1,1-8.35,0ZM31,38.61a7.27,7.27,0,0,1,7.23-6.54h7.54A7.27,7.27,0,0,1,53,38.61Z"/></svg>